<svg xmlns="http://www.w3.org/2000/svg" viewBox="0 0 512 512">
  <circle cx="256" cy="256" r="256" fill="#689071"/>
  <g fill="#ffffff">
    <polygon points="90,300 430,300 380,380 140,380"/>
    <polygon points="150,250 360,250 330,300 170,300"/>
    <polygon points="220,200 320,200 320,250 220,250"/>
    <polygon points="245,160 265,160 265,200 245,200"/>
    <polygon points="280,160 300,160 300,200 280,200"/>
  </g>
  <g fill="#689071">
    <circle cx="196" cy="326" r="6"/>
    <circle cx="226" cy="326" r="6"/>
    <circle cx="256" cy="326" r="6"/>
    <circle cx="286" cy="326" r="6"/>
    <circle cx="316" cy="326" r="6"/>
    <circle cx="346" cy="326" r="6"/>
  </g>
</svg>
